<svg width="67" height="49" viewBox="0 0 67 49" fill="none" xmlns="http://www.w3.org/2000/svg">
<g clip-path="url(#clip0_736_49)">
<path fill-rule="evenodd" clip-rule="evenodd" d="M46.4858 5.2459C41.9141 4.43411 37.2866 4.03623 32.6591 4.05287L46.4858 5.2459ZM32.6561 4.05288L32.6591 4.05287L16.7608 2.68109C17.765 1.69714 19.0867 1.10504 20.4868 1.00918C29.3677 -0.363862 38.4148 -0.258521 47.2617 1.32115C47.2991 1.32783 47.3363 1.33557 47.3733 1.34437C48.3121 1.56783 49.1613 2.06898 49.8104 2.78163C50.3415 3.3167 50.8645 4.07478 51.3403 4.86675C51.8514 5.71753 52.3819 6.73296 52.8906 7.82966C53.904 10.0143 54.8787 12.6246 55.4469 15.0424C55.4817 15.1902 55.4991 15.3381 55.5004 15.4838L56.5475 14.8796C56.0297 14.2962 55.7147 13.5325 55.7147 12.6921C55.7147 10.8413 57.2423 9.36249 59.0997 9.36249H62.6197C64.4772 9.36249 66.0047 10.8413 66.0047 12.6921C66.0047 14.5429 64.4772 16.0218 62.6197 16.0218H59.0997C58.8876 16.0218 58.6798 16.0025 58.4781 15.9656L57.0043 17.3911C56.9298 17.4633 56.83 17.5036 56.7262 17.5036H53.4934C53.4721 17.5036 53.4515 17.5022 53.4316 17.4993C52.5511 17.4698 51.7643 16.8564 51.5531 15.9576C51.0613 13.8654 50.1911 11.5157 49.262 9.51285C48.7995 8.5158 48.3344 7.63061 47.9115 6.92671C47.4685 6.18926 47.1372 5.76167 46.9608 5.58893C46.9264 5.55524 46.8932 5.52031 46.8613 5.48423C46.761 5.37068 46.6307 5.28817 46.4858 5.2459L32.6561 4.05288ZM32.6561 4.05288L16.7603 2.68161C16.2028 3.22774 15.6363 4.06194 15.1218 4.9247C14.5813 5.83098 14.0093 6.92198 13.458 8.09342C12.3622 10.422 11.2924 13.1881 10.7153 15.5934C10.6771 15.7529 10.6591 15.9125 10.6597 16.0696L9.446 15.3508C9.96867 14.7518 10.2851 13.9672 10.2851 13.1095C10.2851 11.2346 8.77297 9.70862 6.90012 9.70862H3.38012C1.50726 9.70862 -0.00488281 11.2346 -0.00488281 13.1095C-0.00488281 14.9843 1.50726 16.5103 3.38012 16.5103H6.90012C7.10776 16.5103 7.31098 16.4916 7.50818 16.4557L8.99484 17.9316C9.06977 18.0059 9.17107 18.0477 9.27665 18.0477H12.4367C13.426 18.1602 14.3667 17.5196 14.605 16.5266C15.0979 14.4719 16.0531 11.973 17.0773 9.79661C17.586 8.71554 18.0977 7.74404 18.5573 6.97345C19.0426 6.1596 19.3922 5.70281 19.5595 5.53893L19.56 5.53841C19.8924 5.21271 20.3327 5.02028 20.7975 4.99764C20.868 4.99421 20.9383 4.98704 21.0081 4.97617C24.8686 4.37467 28.7624 4.06703 32.6561 4.05288ZM62.6197 10.6125C63.8109 10.6125 64.7547 11.5555 64.7547 12.6921C64.7547 13.8288 63.8109 14.7718 62.6197 14.7718H59.0997C57.9086 14.7718 56.9647 13.8288 56.9647 12.6921C56.9647 11.5555 57.9086 10.6125 59.0997 10.6125H62.6197ZM3.38012 10.9586C2.20436 10.9586 1.24512 11.9182 1.24512 13.1095C1.24512 14.3007 2.20436 15.2603 3.38012 15.2603H6.90012C8.07587 15.2603 9.03512 14.3007 9.03512 13.1095C9.03512 11.9182 8.07587 10.9586 6.90012 10.9586H3.38012ZM23.6528 6.58176C30.2967 5.5466 37.0665 5.62357 43.6851 6.8095C44.0607 6.89734 44.3994 7.10072 44.6535 7.39112C44.6591 7.39758 44.6651 7.40377 44.6713 7.40968C44.9271 7.65201 45.2661 8.12095 45.6492 8.76391C46.0284 9.40042 46.4391 10.1875 46.8412 11.0489C47.6463 12.7733 48.4088 14.778 48.8132 16.4449C48.849 16.5925 48.9977 16.6831 49.1453 16.6473C49.2929 16.6115 49.3835 16.4628 49.3477 16.3152C48.9321 14.6021 48.1545 12.5618 47.3396 10.8162C46.9317 9.94253 46.5125 9.1384 46.1217 8.48242C45.7386 7.83931 45.3711 7.31848 45.0589 7.01932C44.7282 6.64539 44.2888 6.38406 43.8021 6.27205L43.8022 6.27173L43.789 6.26935C37.112 5.07219 30.2825 4.9935 23.5798 6.03649C22.7792 6.09272 22.0269 6.44108 21.466 7.01554C21.1617 7.31256 20.7963 7.83217 20.4119 8.47667C20.0227 9.12916 19.6026 9.92928 19.1928 10.8005C18.3742 12.5409 17.5888 14.5818 17.173 16.3159C17.1376 16.4636 17.2286 16.612 17.3763 16.6475C17.524 16.6829 17.6724 16.5918 17.7078 16.4442C18.1121 14.7583 18.8817 12.7541 19.6905 11.0346C20.0945 10.1758 20.5063 9.39216 20.8843 8.75841C21.2659 8.11854 21.602 7.65056 21.8522 7.40714L21.8523 7.40721L21.8574 7.40193C22.3267 6.92019 22.9576 6.62902 23.6287 6.58443C23.6367 6.5839 23.6448 6.58301 23.6528 6.58176ZM28.0247 20.1524C28.0428 20.1619 28.0643 20.1734 28.089 20.187C28.1482 20.2194 28.2263 20.2635 28.3206 20.3198C28.5093 20.4323 28.7642 20.5942 29.0657 20.8102C29.6677 21.2414 30.4624 21.893 31.2871 22.8036C32.9475 24.6366 34.7097 27.4998 35.2716 31.6411L35.2757 31.6709L35.2788 31.7009C35.4605 33.4288 36.0316 35.093 36.9492 36.5683C37.8586 38.0303 39.0848 39.2691 40.5371 40.1932C42.5535 41.3264 44.8294 41.918 47.1429 41.91L47.1498 41.91C53.9708 41.91 58.9998 37.1487 58.9998 31.91C58.9998 27.0243 54.584 22.596 48.3966 22.0553L49.0505 24.74L39.4805 21.94L46.6905 15.05L47.4095 18.0023C55.741 18.1359 62.9998 24.0169 62.9998 31.91C62.9998 39.8703 55.6308 45.9084 47.1533 45.91C44.1292 45.9198 41.1549 45.1409 38.5238 43.6501L38.4828 43.6268L38.4429 43.6017C36.4618 42.3522 34.7898 40.6698 33.5527 38.6809C32.3213 36.7011 31.5527 34.469 31.3042 32.1511C30.8621 28.938 29.5187 26.8096 28.3225 25.4889C27.7172 24.8207 27.1444 24.3542 26.7364 24.062C26.5329 23.9163 26.3722 23.8151 26.2715 23.755C26.2212 23.725 26.1861 23.7054 26.1683 23.6957L26.1588 23.6905L26.1263 23.6741L26.0838 23.6501C24.0596 22.5031 21.7715 21.9034 19.4449 21.91C12.5536 21.9944 7.5498 26.6944 7.5498 31.91C7.5498 36.8222 11.9715 41.3147 18.1461 41.8556L17.4697 39.09L27.0397 41.88L19.8397 48.78L19.1373 45.9081C10.7693 45.785 3.5498 39.7891 3.5498 31.91C3.5498 23.9277 10.942 18.0093 19.4064 17.9101L19.4146 17.91L19.4229 17.91C22.4362 17.8996 25.4003 18.6724 28.0247 20.1524Z" fill="url(#paint0_radial_736_49)"/>
<path fill-rule="evenodd" clip-rule="evenodd" d="M46.4858 5.2459C41.9141 4.43411 37.2866 4.03623 32.6591 4.05287L46.4858 5.2459ZM32.6561 4.05288L32.6591 4.05287L16.7608 2.68109C17.765 1.69714 19.0867 1.10504 20.4868 1.00918C29.3677 -0.363862 38.4148 -0.258521 47.2617 1.32115C47.2991 1.32783 47.3363 1.33557 47.3733 1.34437C48.3121 1.56783 49.1613 2.06898 49.8104 2.78163C50.3415 3.3167 50.8645 4.07478 51.3403 4.86675C51.8514 5.71753 52.3819 6.73296 52.8906 7.82966C53.904 10.0143 54.8787 12.6246 55.4469 15.0424C55.4817 15.1902 55.4991 15.3381 55.5004 15.4838L56.5475 14.8796C56.0297 14.2962 55.7147 13.5325 55.7147 12.6921C55.7147 10.8413 57.2423 9.36249 59.0997 9.36249H62.6197C64.4772 9.36249 66.0047 10.8413 66.0047 12.6921C66.0047 14.5429 64.4772 16.0218 62.6197 16.0218H59.0997C58.8876 16.0218 58.6798 16.0025 58.4781 15.9656L57.0043 17.3911C56.9298 17.4633 56.83 17.5036 56.7262 17.5036H53.4934C53.4721 17.5036 53.4515 17.5022 53.4316 17.4993C52.5511 17.4698 51.7643 16.8564 51.5531 15.9576C51.0613 13.8654 50.1911 11.5157 49.262 9.51285C48.7995 8.5158 48.3344 7.63061 47.9115 6.92671C47.4685 6.18926 47.1372 5.76167 46.9608 5.58893C46.9264 5.55524 46.8932 5.52031 46.8613 5.48423C46.761 5.37068 46.6307 5.28817 46.4858 5.2459L32.6561 4.05288ZM32.6561 4.05288L16.7603 2.68161C16.2028 3.22774 15.6363 4.06194 15.1218 4.9247C14.5813 5.83098 14.0093 6.92198 13.458 8.09342C12.3622 10.422 11.2924 13.1881 10.7153 15.5934C10.6771 15.7529 10.6591 15.9125 10.6597 16.0696L9.446 15.3508C9.96867 14.7518 10.2851 13.9672 10.2851 13.1095C10.2851 11.2346 8.77297 9.70862 6.90012 9.70862H3.38012C1.50726 9.70862 -0.00488281 11.2346 -0.00488281 13.1095C-0.00488281 14.9843 1.50726 16.5103 3.38012 16.5103H6.90012C7.10776 16.5103 7.31098 16.4916 7.50818 16.4557L8.99484 17.9316C9.06977 18.0059 9.17107 18.0477 9.27665 18.0477H12.4367C13.426 18.1602 14.3667 17.5196 14.605 16.5266C15.0979 14.4719 16.0531 11.973 17.0773 9.79661C17.586 8.71554 18.0977 7.74404 18.5573 6.97345C19.0426 6.1596 19.3922 5.70281 19.5595 5.53893L19.56 5.53841C19.8924 5.21271 20.3327 5.02028 20.7975 4.99764C20.868 4.99421 20.9383 4.98704 21.0081 4.97617C24.8686 4.37467 28.7624 4.06703 32.6561 4.05288ZM62.6197 10.6125C63.8109 10.6125 64.7547 11.5555 64.7547 12.6921C64.7547 13.8288 63.8109 14.7718 62.6197 14.7718H59.0997C57.9086 14.7718 56.9647 13.8288 56.9647 12.6921C56.9647 11.5555 57.9086 10.6125 59.0997 10.6125H62.6197ZM3.38012 10.9586C2.20436 10.9586 1.24512 11.9182 1.24512 13.1095C1.24512 14.3007 2.20436 15.2603 3.38012 15.2603H6.90012C8.07587 15.2603 9.03512 14.3007 9.03512 13.1095C9.03512 11.9182 8.07587 10.9586 6.90012 10.9586H3.38012ZM23.6528 6.58176C30.2967 5.5466 37.0665 5.62357 43.6851 6.8095C44.0607 6.89734 44.3994 7.10072 44.6535 7.39112C44.6591 7.39758 44.6651 7.40377 44.6713 7.40968C44.9271 7.65201 45.2661 8.12095 45.6492 8.76391C46.0284 9.40042 46.4391 10.1875 46.8412 11.0489C47.6463 12.7733 48.4088 14.778 48.8132 16.4449C48.849 16.5925 48.9977 16.6831 49.1453 16.6473C49.2929 16.6115 49.3835 16.4628 49.3477 16.3152C48.9321 14.6021 48.1545 12.5618 47.3396 10.8162C46.9317 9.94253 46.5125 9.1384 46.1217 8.48242C45.7386 7.83931 45.3711 7.31848 45.0589 7.01932C44.7282 6.64539 44.2888 6.38406 43.8021 6.27205L43.8022 6.27173L43.789 6.26935C37.112 5.07219 30.2825 4.9935 23.5798 6.03649C22.7792 6.09272 22.0269 6.44108 21.466 7.01554C21.1617 7.31256 20.7963 7.83217 20.4119 8.47667C20.0227 9.12916 19.6026 9.92928 19.1928 10.8005C18.3742 12.5409 17.5888 14.5818 17.173 16.3159C17.1376 16.4636 17.2286 16.612 17.3763 16.6475C17.524 16.6829 17.6724 16.5918 17.7078 16.4442C18.1121 14.7583 18.8817 12.7541 19.6905 11.0346C20.0945 10.1758 20.5063 9.39216 20.8843 8.75841C21.2659 8.11854 21.602 7.65056 21.8522 7.40714L21.8523 7.40721L21.8574 7.40193C22.3267 6.92019 22.9576 6.62902 23.6287 6.58443C23.6367 6.5839 23.6448 6.58301 23.6528 6.58176ZM28.0247 20.1524C28.0428 20.1619 28.0643 20.1734 28.089 20.187C28.1482 20.2194 28.2263 20.2635 28.3206 20.3198C28.5093 20.4323 28.7642 20.5942 29.0657 20.8102C29.6677 21.2414 30.4624 21.893 31.2871 22.8036C32.9475 24.6366 34.7097 27.4998 35.2716 31.6411L35.2757 31.6709L35.2788 31.7009C35.4605 33.4288 36.0316 35.093 36.9492 36.5683C37.8586 38.0303 39.0848 39.2691 40.5371 40.1932C42.5535 41.3264 44.8294 41.918 47.1429 41.91L47.1498 41.91C53.9708 41.91 58.9998 37.1487 58.9998 31.91C58.9998 27.0243 54.584 22.596 48.3966 22.0553L49.0505 24.74L39.4805 21.94L46.6905 15.05L47.4095 18.0023C55.741 18.1359 62.9998 24.0169 62.9998 31.91C62.9998 39.8703 55.6308 45.9084 47.1533 45.91C44.1292 45.9198 41.1549 45.1409 38.5238 43.6501L38.4828 43.6268L38.4429 43.6017C36.4618 42.3522 34.7898 40.6698 33.5527 38.6809C32.3213 36.7011 31.5527 34.469 31.3042 32.1511C30.8621 28.938 29.5187 26.8096 28.3225 25.4889C27.7172 24.8207 27.1444 24.3542 26.7364 24.062C26.5329 23.9163 26.3722 23.8151 26.2715 23.755C26.2212 23.725 26.1861 23.7054 26.1683 23.6957L26.1588 23.6905L26.1263 23.6741L26.0838 23.6501C24.0596 22.5031 21.7715 21.9034 19.4449 21.91C12.5536 21.9944 7.5498 26.6944 7.5498 31.91C7.5498 36.8222 11.9715 41.3147 18.1461 41.8556L17.4697 39.09L27.0397 41.88L19.8397 48.78L19.1373 45.9081C10.7693 45.785 3.5498 39.7891 3.5498 31.91C3.5498 23.9277 10.942 18.0093 19.4064 17.9101L19.4146 17.91L19.4229 17.91C22.4362 17.8996 25.4003 18.6724 28.0247 20.1524Z" fill="url(#paint1_radial_736_49)"/>
</g>
<defs>
<radialGradient id="paint0_radial_736_49" cx="0" cy="0" r="1" gradientUnits="userSpaceOnUse" gradientTransform="translate(32.9999 24.4162) rotate(90) scale(24.3638 33.0048)">
<stop stop-color="#909090" stop-opacity="0.42"/>
<stop offset="0.34375" stop-color="#909090"/>
<stop offset="0.625" stop-color="#909090"/>
<stop offset="1" stop-color="#909090" stop-opacity="0.42"/>
</radialGradient>
<radialGradient id="paint1_radial_736_49" cx="0" cy="0" r="1" gradientUnits="userSpaceOnUse" gradientTransform="translate(32.9999 24.4162) rotate(90) scale(24.3638 33.0048)">
<stop stop-color="#909090" stop-opacity="0.42"/>
<stop offset="0.34375" stop-color="#909090"/>
<stop offset="0.625" stop-color="#909090"/>
<stop offset="1" stop-color="#909090" stop-opacity="0.42"/>
</radialGradient>
<clipPath id="clip0_736_49">
<rect width="66.52" height="48.78" fill="white"/>
</clipPath>
</defs>
</svg>
